<svg width="16" height="19" viewBox="0 0 16 19" fill="none" xmlns="http://www.w3.org/2000/svg">
<path d="M10.0489 0.0610593C9.03788 -0.222889 8.24796 0.536571 7.96624 1.2444C7.64272 2.05957 7.3556 2.63154 7.01457 3.31492C6.76845 3.80525 6.52893 4.29892 6.29609 4.7958C5.65581 6.16799 5.01821 7.04565 4.55316 7.57415C4.38411 7.76887 4.20168 7.95137 4.00723 8.12031C3.96309 8.15852 3.91768 8.19522 3.87109 8.23035L3.84952 8.24666L1.32611 9.7452C0.779828 10.07 0.364661 10.5786 0.153618 11.1814C-0.057425 11.7842 -0.0508295 12.4428 0.172245 13.0412L0.873192 14.9215C1.01711 15.3078 1.24643 15.656 1.54375 15.9396C1.84107 16.2233 2.19858 16.435 2.58916 16.5586L9.80892 18.8438C10.2361 18.9791 10.6858 19.0272 11.1317 18.9854C11.5776 18.9435 12.0107 18.8125 12.4058 18.6C12.8009 18.3875 13.15 18.0977 13.4327 17.7477C13.7154 17.3977 13.9261 16.9944 14.0523 16.5613L15.891 10.2479C16.0089 9.84267 16.0315 9.41532 15.957 8.99976C15.8825 8.5842 15.7129 8.19186 15.4617 7.85388C15.2105 7.51591 14.8846 7.24159 14.5099 7.05272C14.1351 6.86384 13.7219 6.76559 13.3029 6.76578H11.4373C11.5262 6.45737 11.6166 6.11501 11.7001 5.76041C11.8767 4.99687 12.0277 4.12601 12.0129 3.39915C12.0007 2.72393 11.932 2.01473 11.657 1.41287C11.3618 0.767534 10.8455 0.282512 10.0502 0.0597006L10.0489 0.0610593ZM3.84548 8.25073L3.84278 8.25209L3.84548 8.25073Z" fill="#5E2781"/>
</svg>
