<svg width="22" height="19" viewBox="0 0 22 19" fill="none" xmlns="http://www.w3.org/2000/svg">
<path d="M12.8248 18.27C14.5918 18.27 16.3192 17.746 17.7884 16.7643C19.2577 15.7826 20.4028 14.3872 21.079 12.7547C21.7552 11.1222 21.9321 9.32577 21.5874 7.59268C21.2427 5.8596 20.3918 4.26765 19.1423 3.01817C17.8928 1.76868 16.3009 0.917774 14.5678 0.573041C12.8347 0.228309 11.0383 0.405238 9.40577 1.08145C7.77324 1.75767 6.37789 2.9028 5.39618 4.37204C4.41446 5.84128 3.89047 7.56864 3.89047 9.33568V13.9517L1.21018 11.2714L0.167847 12.3138L4.635 16.7809L9.10215 12.3138L8.05982 11.2714L5.37953 13.9517V9.33568C5.37953 7.86315 5.81618 6.42368 6.63428 5.19932C7.45237 3.97495 8.61516 3.02067 9.97561 2.45716C11.336 1.89364 12.833 1.7462 14.2773 2.03348C15.7215 2.32076 17.0481 3.02985 18.0894 4.07109C19.1306 5.11233 19.8397 6.43894 20.127 7.88318C20.4143 9.32742 20.2668 10.8244 19.7033 12.1849C19.1398 13.5453 18.1855 14.7081 16.9611 15.5262C15.7368 16.3443 14.2973 16.7809 12.8248 16.7809V18.27Z" fill="#5C0808"/>
</svg>
