<svg width="748" height="705" viewBox="0 0 748 705" fill="none" xmlns="http://www.w3.org/2000/svg">
<path d="M262 157.77H335.9V496.069C335.9 500.469 339.5 504.069 343.9 504.069H403.9C408.3 504.069 411.9 500.469 411.9 496.069V157.77H486C492.7 157.77 496.4 150.069 492.3 144.869L380.3 3.06949C379.552 2.11331 378.595 1.34001 377.504 0.808197C376.412 0.276382 375.214 0 374 0C372.786 0 371.588 0.276382 370.496 0.808197C369.404 1.34001 368.448 2.11331 367.7 3.06949L255.7 144.77C251.6 150.07 255.3 157.77 262 157.77V157.77ZM740 466.069H680C675.6 466.069 672 469.669 672 474.069V628.069H76V474.069C76 469.669 72.4 466.069 68 466.069H8C3.6 466.069 0 469.669 0 474.069V672.069C0 689.769 14.3 704.069 32 704.069H716C733.7 704.069 748 689.769 748 672.069V474.069C748 469.669 744.4 466.069 740 466.069Z" fill="white"/>
</svg>
