<svg width="27" height="19" viewBox="0 0 27 19" fill="none" xmlns="http://www.w3.org/2000/svg">
<path d="M2.98413 0H24.0159C26 0 27 0.934167 27 2.83417V16.1658C27 18.05 26 19 24.0159 19H2.98413C1 19 0 18.05 0 16.1658V2.83417C0 0.934167 1 0 2.98413 0ZM13.4921 13.6167L24.1905 4.86083C24.5714 4.54417 24.873 3.81583 24.3968 3.16667C23.9365 2.5175 23.0952 2.50167 22.5397 2.8975L13.4921 9.00917L4.46032 2.8975C3.90476 2.50167 3.06349 2.5175 2.60317 3.16667C2.12698 3.81583 2.42857 4.54417 2.80952 4.86083L13.4921 13.6167Z" fill="#5E2781"/>
</svg>
