<svg width="24" height="24" viewBox="0 0 24 24" fill="none" xmlns="http://www.w3.org/2000/svg">
<path d="M22.8812 3.79223L19.7793 0.693204C19.5605 0.473428 19.3004 0.29905 19.014 0.180089C18.7276 0.0611271 18.4205 -7.4329e-05 18.1104 6.77462e-08C17.4784 6.77462e-08 16.8842 0.247573 16.4386 0.693204L13.1008 4.03107C12.881 4.24988 12.7066 4.50996 12.5877 4.79637C12.4687 5.08278 12.4075 5.38987 12.4076 5.7C12.4076 6.33204 12.6552 6.92621 13.1008 7.37184L15.5415 9.81262C14.9702 11.0719 14.1759 12.2175 13.1969 13.1942C12.2204 14.1755 11.0749 14.9728 9.81539 15.5476L7.37465 13.1068C7.15584 12.887 6.89576 12.7126 6.60936 12.5937C6.32295 12.4747 6.01587 12.4135 5.70574 12.4136C5.07371 12.4136 4.47955 12.6612 4.03392 13.1068L0.693195 16.4417C0.473152 16.661 0.298628 16.9215 0.179662 17.2085C0.0606969 17.4954 -0.000360924 17.803 1.60494e-06 18.1136C1.60494e-06 18.7456 0.247571 19.3398 0.693195 19.7854L3.78927 22.8816C4.49993 23.5951 5.48147 24 6.48922 24C6.70184 24 6.90572 23.9825 7.10669 23.9476C11.0328 23.301 14.927 21.2126 18.0696 18.0728C21.2094 14.9359 23.2948 11.0447 23.9501 7.1068C24.1482 5.90388 23.7492 4.66602 22.8812 3.79223Z" fill="#5E2781"/>
</svg>
