<svg width="26" height="35" viewBox="0 0 26 35" fill="none" xmlns="http://www.w3.org/2000/svg">
<path fill-rule="evenodd" clip-rule="evenodd" d="M1.43333 0C1.05319 0 0.688616 0.151012 0.419814 0.419814C0.151012 0.688616 0 1.05319 0 1.43333V32.9667C-6.03434e-07 33.2225 0.0684852 33.4737 0.198347 33.6942C0.32821 33.9146 0.514714 34.0963 0.738498 34.2203C0.962282 34.3444 1.21519 34.4062 1.47095 34.3995C1.72672 34.3928 1.97603 34.3177 2.193 34.1821L12.9 27.4913L23.607 34.1821C23.824 34.3177 24.0733 34.3928 24.329 34.3995C24.5848 34.4062 24.8377 34.3444 25.0615 34.2203C25.2853 34.0963 25.4718 33.9146 25.6017 33.6942C25.7315 33.4737 25.8 33.2225 25.8 32.9667V1.43333C25.8 1.05319 25.649 0.688616 25.3802 0.419814C25.1114 0.151012 24.7468 0 24.3667 0H1.43333Z" fill="#5E2781"/>
</svg>
