<svg width="10" height="19" viewBox="0 0 10 19" fill="none" xmlns="http://www.w3.org/2000/svg">
<path d="M1.65923 9.34601e-05C1.87269 -0.000595093 2.0836 0.0441475 2.27646 0.131037C2.46932 0.217924 2.63924 0.344749 2.77372 0.50219L9.67496 8.64428C9.88511 8.88709 10 9.19166 10 9.50598C10 9.8203 9.88511 10.1249 9.67496 10.3677L2.53082 18.5098C2.28829 18.7869 1.93978 18.9612 1.56196 18.9943C1.18414 19.0273 0.807958 18.9165 0.516167 18.6862C0.224376 18.4558 0.0408802 18.1249 0.00604534 17.766C-0.0287886 17.4072 0.0878916 17.0499 0.330419 16.7728L6.71728 9.4992L0.544744 2.2256C0.370022 2.02641 0.259035 1.78386 0.224916 1.52663C0.190796 1.26941 0.23497 1.00829 0.352214 0.77417C0.469458 0.540047 0.654862 0.342722 0.886491 0.20554C1.11812 0.0683594 1.38628 -0.00293541 1.65923 9.34601e-05Z" fill="white"/>
</svg>
