<svg width="20" height="39" viewBox="0 0 20 39" fill="none" xmlns="http://www.w3.org/2000/svg">
<path d="M3.65254 0.500188C4.05811 0.498809 4.45884 0.588297 4.82528 0.762072C5.19172 0.935848 5.51455 1.1895 5.77006 1.50438L18.8824 17.7886C19.2817 18.2742 19.5 18.8833 19.5 19.512C19.5 20.1406 19.2817 20.7497 18.8824 21.2354L5.30855 37.5196C4.84775 38.0738 4.18558 38.4223 3.46773 38.4885C2.74987 38.5547 2.03512 38.3331 1.48072 37.8724C0.926316 37.4117 0.577674 36.7497 0.511488 36.0321C0.445303 35.3144 0.666995 34.5998 1.1278 34.0456L13.2628 19.4984L1.53501 4.95119C1.20304 4.55282 0.992168 4.06771 0.92734 3.55327C0.862513 3.03883 0.946445 2.51658 1.16921 2.04834C1.39197 1.58009 1.74424 1.18544 2.18433 0.911081C2.62443 0.636719 3.13392 0.494131 3.65254 0.500188Z" fill="white"/>
</svg>
