<svg width="28" height="29" viewBox="0 0 28 29" fill="none" xmlns="http://www.w3.org/2000/svg">
<path d="M24.749 22.9323C26.1851 21.2044 27.184 19.156 27.661 16.9604C28.1381 14.7649 28.0793 12.4867 27.4897 10.3187C26.9001 8.15063 25.797 6.15648 24.2737 4.50493C22.7504 2.85338 20.8517 1.59301 18.7383 0.830441C16.6248 0.0678713 14.3589 -0.174464 12.132 0.123936C9.90508 0.422336 7.78282 1.25269 5.94472 2.54476C4.10662 3.83683 2.60675 5.5526 1.57199 7.54693C0.537238 9.54126 -0.00196259 11.7555 5.36765e-06 14.0023C0.000760542 17.2684 1.15175 20.43 3.25101 22.9323L3.23101 22.9493C3.30101 23.0333 3.38101 23.1053 3.45301 23.1883C3.54301 23.2913 3.64001 23.3883 3.73301 23.4883C4.01301 23.7923 4.30101 24.0843 4.60301 24.3583C4.69501 24.4423 4.79001 24.5203 4.88301 24.6003C5.20301 24.8763 5.53201 25.1383 5.87301 25.3823C5.91701 25.4123 5.95701 25.4513 6.00101 25.4823V25.4703C8.34311 27.1184 11.1371 28.003 14.001 28.003C16.8649 28.003 19.6589 27.1184 22.001 25.4703V25.4823C22.045 25.4513 22.084 25.4123 22.129 25.3823C22.469 25.1373 22.799 24.8763 23.119 24.6003C23.212 24.5203 23.307 24.4413 23.399 24.3583C23.701 24.0833 23.989 23.7923 24.269 23.4883C24.362 23.3883 24.458 23.2913 24.549 23.1883C24.62 23.1053 24.701 23.0333 24.771 22.9483L24.749 22.9323ZM14 6.00226C14.89 6.00226 15.7601 6.26618 16.5001 6.76064C17.2401 7.25511 17.8169 7.95791 18.1575 8.78018C18.4981 9.60245 18.5872 10.5072 18.4135 11.3802C18.2399 12.2531 17.8113 13.0549 17.182 13.6842C16.5526 14.3136 15.7508 14.7422 14.8779 14.9158C14.005 15.0894 13.1002 15.0003 12.2779 14.6597C11.4557 14.3191 10.7529 13.7423 10.2584 13.0023C9.76393 12.2623 9.50001 11.3923 9.50001 10.5023C9.50001 9.30878 9.97411 8.16419 10.818 7.32028C11.6619 6.47636 12.8065 6.00226 14 6.00226V6.00226ZM6.00701 22.9323C6.02435 21.6192 6.55795 20.3658 7.49236 19.4432C8.42677 18.5206 9.68686 18.0029 11 18.0023H17C18.3132 18.0029 19.5732 18.5206 20.5076 19.4432C21.4421 20.3658 21.9757 21.6192 21.993 22.9323C19.7998 24.9086 16.9523 26.0023 14 26.0023C11.0477 26.0023 8.20016 24.9086 6.00701 22.9323V22.9323Z" fill="white"/>
</svg>
