<svg width="27" height="27" viewBox="0 0 27 27" fill="none" xmlns="http://www.w3.org/2000/svg">
<path d="M17.3433 18.48L19.5833 16.24C19.885 15.9421 20.2667 15.7381 20.6821 15.6529C21.0975 15.5677 21.5287 15.6049 21.9233 15.76L24.6533 16.85C25.0521 17.0119 25.3941 17.2882 25.6361 17.6441C25.8781 18.0001 26.0094 18.4197 26.0133 18.85V23.85C26.011 24.1428 25.9494 24.4321 25.8324 24.7005C25.7153 24.9688 25.5452 25.2107 25.3321 25.4116C25.1191 25.6125 24.8677 25.7682 24.5929 25.8693C24.3181 25.9704 24.0257 26.0149 23.7333 26C4.60332 24.81 0.743317 8.61004 0.0133175 2.41004C-0.0205696 2.10558 0.0103921 1.79739 0.104166 1.50575C0.197939 1.21411 0.352399 0.945633 0.557385 0.717977C0.76237 0.49032 1.01323 0.308646 1.29348 0.184905C1.57372 0.0611637 1.87698 -0.00183916 2.18332 4.0869e-05H7.01332C7.44433 0.00131666 7.8651 0.131508 8.22151 0.37387C8.57793 0.616232 8.85369 0.959681 9.01332 1.36004L10.1033 4.09004C10.2636 4.48311 10.3045 4.91468 10.2209 5.33085C10.1373 5.74702 9.93292 6.12934 9.63332 6.43004L7.39332 8.67004C7.39332 8.67004 8.68332 17.4 17.3433 18.48Z" fill="white"/>
</svg>
